<?xml version="1.0" encoding="utf-8"?>
<!-- Generator: Adobe Illustrator 24.2.1, SVG Export Plug-In . SVG Version: 6.00 Build 0)  -->
<svg version="1.1" id="Layer_1" xmlns="http://www.w3.org/2000/svg" xmlns:xlink="http://www.w3.org/1999/xlink" x="0px" y="0px"
	 viewBox="0 0 612 792" style="enable-background:new 0 0 612 792;" xml:space="preserve">
<style type="text/css">
	.st0{fill:#89D2D8;stroke:#000000;stroke-miterlimit:10;}
</style>
<rect class="st0" width="400" height="792"/>
<g>
	<path d="M151.57,361.25c25.42,9.67,44.48,26.59,57.19,50.76c12.71,24.17,19.06,55.47,19.06,93.91c0,44.48-7.58,77.9-22.75,100.25
		c-15.16,22.36-37.97,33.54-68.42,33.54H14.85v-53.66h27.48V156.76H14.85V103.1h121.99c25.37,0,45,10.4,58.86,31.18
		c13.86,20.79,20.8,50.16,20.8,88.11c0,31.18-5.4,58.32-16.19,81.4C189.52,326.87,173.28,346.03,151.57,361.25z M94.14,337.69h11.27
		c18.71,0,32.71-8.21,42.01-24.66c9.3-16.44,13.94-41.09,13.94-73.97c0-29.97-4.22-51.18-12.65-63.63
		c-8.43-12.45-22.68-18.67-42.75-18.67H94.14V337.69z M94.14,586.05h12.41c22.97,0,39.48-7.07,49.55-21.21s15.1-37.16,15.1-69.07
		c0-31.18-6.15-56.74-18.43-76.69c-12.29-19.94-28.19-29.91-47.7-29.91H94.14V586.05z"/>
	<path d="M338.07,646.6l-61.78-489.84h-15.97V103.1h98.04v53.66H330.9l38.88,306.74l53.11-356.05h32.04L505.7,472.2l46.4-315.44
		h-27.56V103.1h73.53v53.66h-16.25L510.06,646.6h-32.76L425.3,275.69L369.97,646.6H338.07z"/>
</g>
<g>
</g>
<g>
</g>
<g>
</g>
<g>
</g>
<g>
</g>
<g>
</g>
</svg>
